<?xml version="1.0" encoding="utf-8" ?>
<svg xmlns="http://www.w3.org/2000/svg" xmlns:xlink="http://www.w3.org/1999/xlink" width="318" height="92.875" viewBox="0 0 318 92.875">
	<path transform="matrix(1 0 0 1 0 25.875)" d="M29 61.0312Q21.3125 61.0312 17.1875 56.75Q13.0625 52.4375 13.0625 44.375L13.0625 4.71875L5.25 4.71875Q4.21875 4.71875 3.5 4.125Q2.8125 3.5 2.8125 2.21875L2.8125 -2.34375L13.4375 -3.6875L16.0625 -23.7188Q16.1875 -24.6875 16.875 -25.2812Q17.5938 -25.875 18.6875 -25.875L24.4375 -25.875L24.4375 -3.5625L43 -3.5625L43 4.71875L24.4375 4.71875L24.4375 43.625Q24.4375 47.7188 26.4062 49.7188Q28.4062 51.6875 31.5625 51.6875Q33.3438 51.6875 34.6562 51.2188Q35.9688 50.7188 36.9062 50.1562Q37.875 49.5625 38.5312 49.0938Q39.2188 48.5938 39.75 48.5938Q40.625 48.5938 41.3438 49.6875L44.6875 55.125Q41.7188 57.875 37.5625 59.4688Q33.4062 61.0312 29 61.0312Z" fill-rule="nonzero" fill="rgb(82, 110, 211)"/>
	<path transform="matrix(1 0 0 1 0 25.875)" d="M57.0877 60L57.0877 -4.84375L63.8689 -4.84375Q66.3064 -4.84375 66.9314 -2.46875L67.7752 4.1875Q71.3689 -0.21875 75.8064 -3.03125Q80.2439 -5.84375 86.1502 -5.84375Q92.7439 -5.84375 96.8064 -2.1875Q100.869 1.4375 102.65 7.65625Q103.994 4.125 106.213 1.5625Q108.431 -1 111.181 -2.65625Q113.931 -4.3125 117.025 -5.0625Q120.119 -5.84375 123.338 -5.84375Q128.463 -5.84375 132.463 -4.21875Q136.463 -2.59375 139.244 0.5625Q142.025 3.6875 143.494 8.28125Q144.963 12.8438 144.963 18.7188L144.963 60L133.556 60L133.556 18.7188Q133.556 11.0938 130.213 7.15625Q126.9 3.21875 120.588 3.21875Q117.775 3.21875 115.244 4.21875Q112.713 5.21875 110.775 7.15625Q108.869 9.0625 107.744 11.9688Q106.619 14.875 106.619 18.7188L106.619 60L95.2439 60L95.2439 18.7188Q95.2439 10.9062 92.0877 7.0625Q88.9627 3.21875 82.9314 3.21875Q78.7127 3.21875 75.0877 5.5Q71.4939 7.78125 68.4939 11.6875L68.4939 60L57.0877 60Z" fill-rule="nonzero" fill="rgb(82, 110, 211)"/>
	<path transform="matrix(1 0 0 1 0 25.875)" d="M162.175 60L162.175 -4.84375L168.707 -4.84375Q170.55 -4.84375 171.238 -4.125Q171.957 -3.4375 172.238 -1.6875L172.988 8.40625Q176.332 1.625 181.207 -2.15625Q186.113 -5.96875 192.707 -5.96875Q195.394 -5.96875 197.55 -5.375Q199.738 -4.78125 201.613 -3.6875L200.113 4.84375Q199.675 6.4375 198.144 6.4375Q197.238 6.4375 195.394 5.84375Q193.55 5.21875 190.207 5.21875Q184.269 5.21875 180.269 8.6875Q176.269 12.125 173.582 18.7188L173.582 60L162.175 60Z" fill-rule="nonzero" fill="rgb(82, 110, 211)"/>
	<path transform="matrix(1 0 0 1 0 25.875)" d="M201.593 52.9688Q201.593 51.2812 202.186 49.8125Q202.811 48.3438 203.874 47.2812Q204.936 46.1875 206.405 45.5625Q207.874 44.9062 209.53 44.9062Q211.186 44.9062 212.655 45.5625Q214.155 46.1875 215.218 47.2812Q216.311 48.3438 216.905 49.8125Q217.53 51.2812 217.53 52.9688Q217.53 54.6875 216.905 56.125Q216.311 57.5625 215.218 58.6562Q214.155 59.75 212.655 60.3438Q211.186 60.9688 209.53 60.9688Q207.874 60.9688 206.405 60.3438Q204.936 59.75 203.874 58.6562Q202.811 57.5625 202.186 56.125Q201.593 54.6875 201.593 52.9688Z" fill-rule="nonzero" fill="rgb(82, 110, 211)"/>
	<path transform="matrix(1 0 0 1 0 25.875)" d="M220.042 -4.84375L228.979 -4.84375Q230.386 -4.84375 231.292 -4.125Q232.198 -3.4375 232.511 -2.46875L244.917 39.25Q245.448 41.5625 245.886 43.7188Q246.323 45.8438 246.667 48.0312Q247.167 45.8438 247.792 43.7188Q248.448 41.5625 249.167 39.25L262.854 -2.71875Q263.167 -3.6875 263.948 -4.3125Q264.761 -4.96875 265.979 -4.96875L270.917 -4.96875Q272.198 -4.96875 273.011 -4.3125Q273.854 -3.6875 274.167 -2.71875L287.542 39.25Q288.261 41.5 288.792 43.6875Q289.354 45.8438 289.854 47.9688Q290.167 45.8438 290.667 43.5625Q291.198 41.25 291.761 39.25L304.448 -2.46875Q304.761 -3.5 305.667 -4.15625Q306.573 -4.84375 307.761 -4.84375L316.354 -4.84375L295.354 60L286.323 60Q284.667 60 284.042 57.8125L269.698 13.8438Q269.198 12.375 268.854 10.875Q268.542 9.375 268.229 7.90625Q267.917 9.375 267.573 10.9062Q267.261 12.4375 266.761 13.9062L252.229 57.8125Q251.511 60 249.604 60L241.011 60L220.042 -4.84375Z" fill-rule="nonzero" fill="rgb(82, 110, 211)"/>
	<path transform="matrix(1 0 0 1 196 66.875)" d="M13 0C20.1797 0 26 5.8203 26 13C26 20.1797 20.1797 26 13 26C5.8203 26 0 20.1797 0 13C0 5.8203 5.8203 0 13 0Z" fill-rule="nonzero" fill="rgb(255, 112, 67)"/>
	<path transform="matrix(1 0 0 1 199 69.875)" d="M18.419 17.1833Q21.8897 13.1051 20.8205 7.85773C20.7102 7.31657 20.1822 6.96726 19.641 7.07753C19.0998 7.18779 18.7505 7.71589 18.8608 8.25705Q19.7356 12.5503 16.8959 15.8871Q14.0561 19.2238 9.67819 19.0466Q5.30026 18.8695 2.73934 15.3143Q0.178423 11.7591 1.3972 7.55054Q2.61597 3.34194 6.68038 1.70538Q10.7448 0.0688224 14.5399 2.25855C15.0183 2.53456 15.6298 2.37052 15.9058 1.89216C16.1818 1.41379 16.0178 0.80224 15.5394 0.526229Q10.901 -2.15011 5.93335 -0.14987Q0.965746 1.85037 -0.523868 6.99421Q-2.01348 12.1381 1.11653 16.4833Q4.24654 20.8285 9.59735 21.045Q14.9482 21.2615 18.419 17.1833Z" fill-rule="evenodd" fill="rgb(255, 255, 255)"/>
	<defs>
		<filter id="filter3089224819" filterUnits="userSpaceOnUse" color-interpolation-filters="sRGB">
			<feComponentTransfer in="SourceAlpha" result="componentTransfer1478621965">
				<feFuncR type="linear" slope="0" intercept="0"/>
				<feFuncG type="linear" slope="0" intercept="0"/>
				<feFuncB type="linear" slope="0" intercept="0"/>
				<feFuncA type="linear" slope="10000" intercept="0"/>
			</feComponentTransfer>
			<feComponentTransfer in="componentTransfer1478621965" result="componentTransfer3335009208">
				<feFuncA type="linear" slope="0.2" intercept="0"/>
			</feComponentTransfer>
			<feOffset dx="0" dy="1" in="componentTransfer3335009208" result="offset1544782254"/>
			<feGaussianBlur stdDeviation="1" in="offset1544782254" result="gaussianBlur1181760194"/>
			<feMerge>
				<feMergeNode in="gaussianBlur1181760194"/>
				<feMergeNode in="SourceGraphic"/>
			</feMerge>
		</filter>
	</defs>
	<g filter="url(#filter3089224819)">
		<path transform="matrix(1 0 0 1 206 69.875)" d="M15.6931 -0.720833C15.295 -1.10362 14.662 -1.09121 14.2792 -0.693109L3.46154 10.5572L0.720833 7.70689C0.338043 7.30879 -0.295007 7.29637 -0.693109 7.67916C-1.09121 8.06195 -1.10362 8.695 -0.720833 9.09311L2.74071 12.6931Q2.87857 12.8365 3.06082 12.9162Q3.24306 12.9959 3.44194 12.9998Q3.64081 13.0037 3.82604 12.9312Q4.01127 12.8587 4.15465 12.7208Q4.16878 12.7072 4.18237 12.6931L15.7208 0.693109C16.1036 0.295008 16.0912 -0.338042 15.6931 -0.720833Z" fill-rule="evenodd" fill="rgb(82, 110, 211)"/>
	</g>
</svg>
